<svg xmlns="http://www.w3.org/2000/svg" xmlns:xlink="http://www.w3.org/1999/xlink" version="1.1" id="Your_Icon" x="0px" y="0px" width="100px" height="100px" viewBox="0 0 100 100" enable-background="new 0 0 100 100" xml:space="preserve">
<g>
	<path d="M74.918,28.937c-0.641-5.91-1.365-14.941-8.443-16.986c-7.321-2.118-10.479,9.073-11.925,14.045   c-1.84,6.315-2.697,15.639-1.88,22.08l17.321,2.394C72.059,44.806,75.581,35.074,74.918,28.937z"/>
	<path d="M68.036,56.932l-14.967-2.067C50.465,73.717,65.322,76.736,68.036,56.932z"/>
	<path d="M41.844,42.35c-3.073-5.087-7.539-12.972-14.82-11.843c-7.528,1.172-5.675,12.652-4.888,17.771   c0.994,6.5,4.148,15.315,7.606,20.81l16.714-5.135C45.945,57.946,45.035,47.637,41.844,42.35z"/>
	<path d="M32.967,75.076c5.591,18.191,20.338,14.663,14.442-4.438L32.967,75.076z"/>
</g>
</svg>