<?xml version="1.0" standalone="no"?> <!DOCTYPE svg PUBLIC "-//W3C//DTD SVG 1.0//EN" "http://www.w3.org/TR/2001/REC-SVG-20010904/DTD/svg10.dtd" > <svg xmlns="http://www.w3.org/2000/svg" width="100%" height="100%">
<defs >
<font id="scalasansot-regular" horiz-adv-x="537" ><font-face
    font-family="ScalaSansOT-Regular"
    units-per-em="1000"
    panose-1="2 0 5 3 5 0 0 2 0 3"
    ascent="922"
    descent="-271"
    alphabetic="0" />
<missing-glyph horiz-adv-x="545" d="M86 0V660H459V0H86ZM143 57H402V603H143V57Z" />
<glyph unicode=" " glyph-name="space" horiz-adv-x="250" />
<glyph unicode="!" glyph-name="exclam" horiz-adv-x="264" d="M181 736L175 195H99L93 736H181ZM194 67T194 44T177 4T137 -13T97 4T80 44T97 84T137 101T177 84Z" />
<glyph unicode="&quot;" glyph-name="quotedbl" horiz-adv-x="412" d="M319 434H250V660H319V434ZM162 434H93V660H162V434Z" />
<glyph unicode="#" glyph-name="numbersign" horiz-adv-x="650" d="M595 458L585 401H473L448 271H562L552 214H436L395 0H333L374 214H231L188 0H127L170 214H55L65 271H181L208 401H92L102 458H218L258 658H318L279 458H422L461 658H523L484 458H595ZM411 401H268L242
271H385L411 401Z" />
<glyph unicode="$" glyph-name="dollar" horiz-adv-x="534" d="M480 616L442 548Q405 570 373 582Q334 596 298 598V368Q304 364 319 355Q401 307 422 290Q474 249 474 172Q474 87 414 36Q391 16 367 7T298 -10V-69H254L253 -13Q179 -9 135 9Q105 21 50 58L92
123Q141 91 167 79Q200 65 253 61V301L212 325Q132 372 102 409T71 496Q71 567 118 612T253 669L254 729H298V670Q360 667 400 655Q433 644 480 616ZM253 389V597Q152 579 152 502Q152 457 193 430L253 389ZM393 162Q393 198 384 211Q377 221 323 265Q307 278 298
278V63Q341 71 367 98T393 162Z" />
<glyph unicode="%" glyph-name="percent" horiz-adv-x="850" d="M384 568T384 495T333 371T209 320Q137 320 86 371T34 495T85 619T209 671Q282 671 333 620ZM816 162Q816 90 765 39T641 -13Q568 -13 517 38T466 162Q466 235 517 286T641 337Q713 337 764 286T816
162ZM744 692L172 -44H103L675 692H744ZM324 495Q324 542 291 576T209 610Q162 610 129 576T95 495Q95 447 128 414T209 380Q257 380 290 413T324 495ZM755 162Q755 210 722 243T641 277Q593 277 560 244T526 162Q526 115 559 82T641 48Q688 48 721 81T755 162Z"
/>
<glyph unicode="&amp;" glyph-name="ampersand" horiz-adv-x="701" d="M709 101Q680 57 655 32Q611 -12 555 -12Q529 -12 502 -2Q468 12 417 67Q371 24 325 6T220 -13Q128 -13 73 36T18 167Q18 219 45 261T142 360L185 395L148 444Q95 514 95 574Q95 648 148 694T290
740Q370 740 420 701T470 598Q470 528 381 462L335 428L296 478L336 508Q391 550 391 596Q391 631 362 653T289 676Q240 676 208 649T175 579Q175 566 180 549Q186 526 196 508T242 441L434 175Q473 217 488 254T509 359H578Q572 283 555 241Q535 191 472 123Q502
85 522 71T565 57Q589 57 609 73T660 134L709 101ZM381 120L222 342L180 308Q136 273 118 243T100 176Q100 121 136 89T235 56Q275 56 308 70Q335 82 381 120Z" />
<glyph unicode="&apos;" glyph-name="quotesingle" horiz-adv-x="251" d="M160 434H91V660H160V434Z" />
<glyph unicode="(" glyph-name="parenleft" horiz-adv-x="363" d="M349 -245H274Q248 -213 236 -191T198 -109Q130 52 130 213Q130 371 198 534Q226 602 237 622T274 666H349Q290 595 252 467T213 210Q213 80 251 -47T349 -245Z" />
<glyph unicode=")" glyph-name="parenright" horiz-adv-x="363" d="M241 213Q241 58 173 -109Q150 -164 137 -187T97 -245H22Q82 -174 120 -47T158 210Q158 339 120 467T22 666H97Q122 641 133 621T173 534Q241 371 241 213Z" />
<glyph unicode="*" glyph-name="asterisk" horiz-adv-x="500" d="M474 471L312 425L293 481L452 539L474 471ZM206 481L187 425L25 471L47 539L206 481ZM242 372L148 232L90 274L194 406L242 372ZM410 274L353 232L259 372L306 407L410 274ZM287 660L280 491H222L216
660H287Z" />
<glyph unicode="+" glyph-name="plus" horiz-adv-x="550" d="M512 208H303V0H247V208H38V265H247V474H303V265H512V208Z" />
<glyph unicode="," glyph-name="comma" horiz-adv-x="252" d="M176 36Q176 13 168 -17Q155 -59 122 -121L109 -145H65Q76 -120 87 -88Q97 -58 104 -26L61 82Q88 100 119 100Q176 100 176 36Z" />
<glyph unicode="-" glyph-name="hyphen" horiz-adv-x="276" d="M233 190H42V266H233V190Z" />
<glyph unicode="." glyph-name="period" horiz-adv-x="251" d="M182 45Q182 21 166 5T126 -12Q102 -12 86 4T69 45Q69 68 85 84T126 101Q149 101 165 85T182 45Z" />
<glyph unicode="/" glyph-name="slash" horiz-adv-x="409" d="M364 660L112 -245H43L295 660H364Z" />
<glyph unicode="0" glyph-name="zero" horiz-adv-x="570" d="M539 234Q539 130 467 56T291 -18T115 56T42 234Q42 339 115 413T291 487T466 413T539 234ZM464 155T464 234T413 369T291 425Q219 425 168 369T117 234T168 99T291 43Q362 43 413 99Z" />
<glyph unicode="1" glyph-name="one" horiz-adv-x="390" d="M247 0H172V415H59V478H247V0Z" />
<glyph unicode="2" glyph-name="two" horiz-adv-x="494" d="M444 0H42V38L274 239Q324 281 324 336Q324 373 300 395T236 418Q198 418 170 400Q150 388 99 333L48 371Q95 426 120 445Q171 485 244 485T359 446T402 339Q402 304 390 275Q381 252 363 232T296 171L167
63H444V0Z" />
<glyph unicode="3" glyph-name="three" horiz-adv-x="430" d="M368 30Q368 -80 284 -145T59 -210H34V-146Q102 -145 139 -137T211 -109Q250 -87 272 -52T294 23Q294 81 258 112T153 143H103V198Q180 215 221 252T262 341Q262 377 242 398T188 420Q162 420 140
409T78 365L34 415Q54 433 72 445Q133 486 202 486Q263 486 299 449T335 349Q335 245 235 195Q273 183 289 174Q368 131 368 30Z" />
<glyph unicode="4" glyph-name="four" horiz-adv-x="526" d="M510 0H394V-210H322V0H7V19L359 484H394V63H510V0ZM323 338L308 308L137 79L118 58L143 63H322L321 307L323 338Z" />
<glyph unicode="5" glyph-name="five" horiz-adv-x="413" d="M364 25Q364 -34 338 -84T263 -165Q223 -191 168 -202Q128 -210 54 -214V-151Q131 -146 176 -133Q229 -116 257 -77T286 20Q286 97 242 139Q207 171 122 174L73 176V478H344V415H145V239L184 236Q268
229 316 173T364 25Z" />
<glyph unicode="6" glyph-name="six" horiz-adv-x="544" d="M482 210Q482 110 425 45T280 -21Q182 -21 125 56T68 266Q68 444 164 566Q246 670 387 670Q409 670 452 666V604Q427 607 399 607Q351 607 318 597Q264 579 218 523Q186 484 171 449T142 346Q189 368
199 372Q256 395 312 395Q388 395 435 344T482 210ZM416 202Q416 258 383 294T297 330Q276 330 238 321Q196 310 142 283Q141 262 141 243Q141 155 180 101T282 46Q339 46 377 91T416 202Z" />
<glyph unicode="7" glyph-name="seven" horiz-adv-x="465" d="M432 440L287 75Q266 24 235 -33Q188 -117 124 -195L66 -146Q100 -107 106 -98Q180 -3 225 113L339 409H42V478H432V440Z" />
<glyph unicode="8" glyph-name="eight" horiz-adv-x="499" d="M457 149Q457 77 397 31T242 -15Q153 -15 98 30T42 148Q42 188 58 220Q68 239 89 264T128 303L199 358L134 413Q95 446 82 469T68 525Q68 593 120 635T255 678Q333 678 382 640T431 540Q431 472 368
421L299 365L381 295Q398 282 415 260Q440 231 448 208T457 149ZM377 156Q377 206 312 264L249 321L186 270Q121 218 121 156Q121 106 153 79T245 51Q306 51 341 79T377 156ZM351 540Q351 576 323 597T247 619Q203 619 175 595T146 532Q146 489 195 447L249 402L304
447Q351 486 351 540Z" />
<glyph unicode="9" glyph-name="nine" horiz-adv-x="544" d="M485 199Q485 21 390 -100Q307 -205 166 -205Q145 -205 102 -201V-138Q134 -142 154 -142Q203 -142 236 -131Q287 -115 336 -58Q368 -19 383 16T411 120Q371 100 354 94Q296 70 241 70Q166 70 119 121T71
255Q71 355 128 421T273 487Q372 487 428 410T485 199ZM412 222Q412 311 374 365T271 420Q215 420 177 375T138 263Q138 207 171 171T257 135Q283 135 316 144Q356 154 411 182Q412 203 412 222Z" />
<glyph unicode=":" glyph-name="colon" horiz-adv-x="251" d="M182 409Q182 385 166 369T126 352Q102 352 86 368T69 409Q69 432 85 448T126 465Q149 465 165 449T182 409ZM182 45Q182 21 166 5T126 -12Q102 -12 86 4T69 45Q69 68 85 84T126 101Q149 101 165 85T182 45Z" />
<glyph unicode=";" glyph-name="semicolon" horiz-adv-x="251" d="M176 36Q176 13 168 -17Q155 -65 122 -121L108 -145H64Q73 -127 86 -88Q96 -59 104 -26L61 82Q88 100 119 100Q176 100 176 36ZM183 409Q183 385 167 369T126 352Q103 352 87 368T70 409Q70 432
86 448T126 465Q150 465 166 449T183 409Z" />
<glyph unicode="&lt;" glyph-name="less" horiz-adv-x="550" d="M511 0L39 210V264L511 474V411L115 237L511 63V0Z" />
<glyph unicode="=" glyph-name="equal" horiz-adv-x="550" d="M525 273H25V330H525V273ZM525 134H25V191H525V134Z" />
<glyph unicode="&gt;" glyph-name="greater" horiz-adv-x="550" d="M511 210L39 0V63L435 237L39 411V474L511 264V210Z" />
<glyph unicode="?" glyph-name="question" horiz-adv-x="418" d="M365 446Q365 372 323 330Q302 309 286 303T235 296H184V189H109V365H260Q287 404 287 444Q287 531 232 590T84 662L109 738Q182 723 222 700Q287 663 326 594T365 446ZM203 45Q203 21 187 5T147
-12Q123 -12 107 4T90 45Q90 68 106 84T147 101Q170 101 186 85T203 45Z" />
<glyph unicode="@" glyph-name="at" horiz-adv-x="1000" d="M905 265Q905 138 838 65T655 -9Q551 -9 551 86Q551 111 558 142L563 165Q518 88 462 43T354 -3Q324 -3 306 37T288 145Q288 286 356 382T523 478Q545 478 583 473Q618 467 674 450L622 124Q618 100
618 82T633 52T672 40Q693 40 722 52Q841 105 841 259Q841 391 749 482T523 574Q368 574 268 474T167 220Q167 62 287 -32Q373 -100 496 -100Q576 -100 650 -67L673 -126Q650 -136 640 -141Q579 -165 494 -165Q410 -165 351 -146T235 -79Q99 31 99 218Q99 403 217
521T520 639Q689 639 797 534T905 265ZM599 398Q551 414 521 414Q457 414 412 334T367 142Q367 80 398 80Q419 80 469 132Q485 148 514 189Q573 276 587 343L599 398Z" />
<glyph unicode="A" glyph-name="A" horiz-adv-x="595" d="M587 0H499L431 195H164L96 0H8L254 679H342L587 0ZM405 270L298 572L190 270H405Z" />
<glyph unicode="B" glyph-name="B" horiz-adv-x="591" d="M532 176Q532 97 483 49T353 0H109V660H323Q410 660 455 619Q507 570 507 498Q507 445 477 405T394 346Q460 333 496 289T532 176ZM445 124T445 182T409 271T304 302H191V69H304Q380 69 410 94Q445 124
445 182ZM420 491Q420 540 393 567Q370 591 304 591H191V377H298Q359 377 388 406Q420 438 420 491Z" />
<glyph unicode="C" glyph-name="C" horiz-adv-x="605" d="M582 609L541 547Q470 597 379 597Q274 597 207 524T139 338Q139 213 209 138T395 63Q472 63 547 94L570 30Q520 7 481 -2Q436 -13 390 -13Q241 -13 146 84T50 333Q50 478 145 575T382 672Q445 672 506
650Q544 636 582 609Z" />
<glyph unicode="D" glyph-name="D" horiz-adv-x="711" d="M661 333Q661 197 572 96Q527 44 471 22T328 0H109V660H329Q474 660 567 568T661 333ZM575 334Q575 444 502 517T316 591H191V69H316Q381 69 421 83T494 129Q530 167 552 223T575 334Z" />
<glyph unicode="E" glyph-name="E" horiz-adv-x="539" d="M489 0H109V660H480V591H191V371H430V302H191V69H489V0Z" />
<glyph unicode="F" glyph-name="F" horiz-adv-x="522" d="M480 591H191V365H430V295H191V0H109V660H480V591Z" />
<glyph unicode="G" glyph-name="G" horiz-adv-x="708" d="M616 25Q589 15 568 9Q497 -13 402 -13Q253 -13 152 86T50 331Q50 478 149 574T399 671Q478 671 536 656Q570 647 616 621L585 553Q577 558 550 571Q488 597 407 597Q337 597 289 577T203 513Q138 437
138 337Q138 218 219 140T425 61Q467 61 534 75V295H616V25Z" />
<glyph unicode="H" glyph-name="H" horiz-adv-x="771" d="M662 0H580V302H191V0H109V660H191V377H580V660H662V0Z" />
<glyph unicode="I" glyph-name="I" horiz-adv-x="300" d="M191 0H109V660H191V0Z" />
<glyph unicode="J" glyph-name="J" horiz-adv-x="300" d="M191 -19Q171 -87 140 -137Q110 -184 59 -233L6 -188Q60 -128 79 -93Q109 -33 109 57V660H191V-19Z" />
<glyph unicode="K" glyph-name="K" horiz-adv-x="571" d="M562 0H461L197 333L455 660H549L291 339L562 0ZM191 0H109V660H191V0Z" />
<glyph unicode="L" glyph-name="L" horiz-adv-x="495" d="M486 0H109V660H191V69H486V0Z" />
<glyph unicode="M" glyph-name="M" horiz-adv-x="878" d="M769 0H687V578Q680 542 662 497L467 0H392L210 484Q192 532 184 572V0H109V660H222L423 132Q432 108 436 82Q441 114 448 132L656 660H769V0Z" />
<glyph unicode="N" glyph-name="N" horiz-adv-x="759" d="M650 -6H555L222 509Q213 524 209 532Q201 545 201 547Q196 556 191 572V0H109V660H216L543 157Q546 153 552 141L564 111Q564 110 565 107T568 101V660H650V-6Z" />
<glyph unicode="O" glyph-name="O" horiz-adv-x="763" d="M713 479T713 330T620 84T382 -13T144 84T50 330Q50 478 144 575T382 672T619 576ZM623 330Q623 441 552 520T382 600Q282 600 211 521T140 330Q140 218 211 139T382 59Q481 59 552 138T623 330Z" />
<glyph unicode="P" glyph-name="P" horiz-adv-x="556" d="M528 465Q528 362 465 302T293 242Q268 242 191 250V0H109V660H316Q376 660 412 648T477 608Q528 556 528 465ZM443 460Q443 526 406 563Q378 591 304 591H191V319Q246 313 279 313Q333 313 365 326Q401
341 422 377T443 460Z" />
<glyph unicode="Q" glyph-name="Q" horiz-adv-x="763" d="M713 329Q713 198 638 105T437 -12Q449 -27 470 -50Q498 -78 524 -98Q566 -131 641 -163L595 -226Q516 -185 464 -144Q432 -119 411 -96T353 -30L339 -13Q286 -4 263 4Q169 36 110 127T50 330Q50 479 143
575T382 672Q526 672 619 575T713 329ZM624 330Q624 441 553 520T382 600T211 521T139 330Q139 218 210 139T382 59T553 138T624 330Z" />
<glyph unicode="R" glyph-name="R" horiz-adv-x="584" d="M555 0H461L279 283H191V0H109V660H310Q370 660 403 650T466 611Q518 561 518 482Q518 400 460 345Q424 309 360 295L555 0ZM430 481Q430 544 394 572Q379 584 361 587T298 591H191V352H298Q430 352 430 481Z" />
<glyph unicode="S" glyph-name="S" horiz-adv-x="534" d="M480 616L442 548Q399 573 373 582Q329 596 282 596Q226 596 191 571T156 503Q156 466 187 439T319 358Q389 321 423 291Q474 248 474 171Q474 86 416 37T257 -13Q190 -13 135 9Q105 21 50 58L92 123Q139
91 168 80Q213 63 263 63Q322 63 355 89T388 163Q388 193 378 210Q361 242 322 264L212 323Q138 363 105 404T71 496Q71 575 131 623T289 671Q351 671 400 655Q433 644 480 616Z" />
<glyph unicode="T" glyph-name="T" horiz-adv-x="539" d="M530 591H310V0H228V591H8V660H530V591Z" />
<glyph unicode="U" glyph-name="U" horiz-adv-x="700" d="M608 226Q608 160 591 118T532 42Q457 -19 351 -19Q244 -19 169 42Q128 76 110 118T92 226V660H174V251Q174 189 181 163T212 111Q263 54 350 54T488 111Q512 137 519 163T526 251V660H608V226Z" />
<glyph unicode="V" glyph-name="V" horiz-adv-x="583" d="M574 660L318 -17H268L8 660H96L291 145Q297 127 298 113Q298 128 304 145L492 660H574Z" />
<glyph unicode="W" glyph-name="W" horiz-adv-x="864" d="M856 660L606 -13H555L436 299L316 -13H272L8 660H96L298 115L402 386L298 660H373L439 487L506 660H574L473 398L581 116L775 660H856Z" />
<glyph unicode="X" glyph-name="X" horiz-adv-x="572" d="M563 0H469L287 269L103 0H8L239 337L19 660H113L288 406L461 660H554L333 336L563 0Z" />
<glyph unicode="Y" glyph-name="Y" horiz-adv-x="550" d="M542 660L310 308V0H228V302L8 660H96L273 377L455 660H542Z" />
<glyph unicode="Z" glyph-name="Z" horiz-adv-x="595" d="M554 0H42V38L424 591H42V660H536V616L154 69H554V0Z" />
<glyph unicode="[" glyph-name="bracketleft" horiz-adv-x="250" d="M237 -245H73V660H237V604H149V-189H237V-245Z" />
<glyph unicode="\" glyph-name="backslash" horiz-adv-x="409" d="M364 -245H295L43 660H112L364 -245Z" />
<glyph unicode="]" glyph-name="bracketright" horiz-adv-x="250" d="M177 -245H13V-189H101V604H13V660H177V-245Z" />
<glyph unicode="^" glyph-name="asciicircum" horiz-adv-x="522" d="M498 1H435L261 396L87 1H24L234 473H288L498 1Z" />
<glyph unicode="_" glyph-name="underscore" horiz-adv-x="500" d="M500 -57H0V0H500V-57Z" />
<glyph unicode="`" glyph-name="grave" horiz-adv-x="533" d="M327 497H258L138 660H226L327 497Z" />
<glyph unicode="a" glyph-name="a" horiz-adv-x="476" d="M425 50L407 -13Q361 -10 342 4T319 50Q288 23 271 14Q226 -12 175 -12Q120 -12 87 20T54 107Q54 209 155 233L312 270V352Q312 408 226 408Q157 408 157 369Q157 363 161 352L85 336Q77 350 77 364Q77
409 122 437T240 465Q308 465 348 435T388 352V74Q391 56 425 50ZM312 113V207L142 163Q129 138 129 114Q129 87 145 71T190 55Q215 55 239 66T312 113Z" />
<glyph unicode="b" glyph-name="b" horiz-adv-x="527" d="M484 247Q484 129 412 58T219 -13Q176 -13 128 -3Q102 4 82 13V729H157V434Q186 449 209 455Q247 465 294 465Q380 465 432 405T484 247ZM402 244Q402 315 367 354T269 394Q210 394 157 358V69Q186 55
223 55Q245 55 262 59Q299 66 334 91Q371 118 386 152T402 244Z" />
<glyph unicode="c" glyph-name="c" horiz-adv-x="444" d="M431 35Q409 21 401 18Q344 -13 275 -13Q172 -13 108 52T43 221Q43 328 109 396T280 465Q314 465 347 456Q384 446 422 419L379 358Q332 397 277 397Q209 397 167 350T125 225Q125 147 167 102T283 56Q342
56 392 94L431 35Z" />
<glyph unicode="d" glyph-name="d" horiz-adv-x="539" d="M458 0H382V57Q320 -13 232 -13Q149 -13 96 50T43 214Q43 323 108 394T274 465Q341 465 382 434V729H458V0ZM382 138V295Q382 338 373 355Q353 393 282 393Q210 393 167 345T124 215Q124 147 158 103T245
58Q290 58 333 89Q355 104 382 138Z" />
<glyph unicode="e" glyph-name="e" horiz-adv-x="469" d="M432 233H122Q122 150 161 103T270 56Q323 56 388 101L418 42Q368 10 333 -1T254 -13Q159 -13 101 53T43 226Q43 334 101 399T257 465Q336 465 384 414T432 277V233ZM350 289Q349 341 324 369T252 397Q154
397 128 289H350Z" />
<glyph unicode="f" glyph-name="f" horiz-adv-x="282" d="M396 717L365 654Q321 669 291 669Q176 669 176 509V453H283V390H176V0H101V390H25V434L101 453V528Q101 625 154 682T296 739Q348 739 396 717Z" />
<glyph unicode="g" glyph-name="g" horiz-adv-x="507" d="M488 390H393Q420 350 420 296Q420 227 368 176T244 125Q242 125 216 127Q215 127 210 127T201 128Q142 79 142 60Q142 44 180 44H349Q412 44 441 19T471 -62Q471 -142 400 -197T226 -253Q155 -253 102
-221T49 -144Q49 -125 63 -97Q80 -65 123 -19Q88 -9 73 3T58 35Q58 75 147 148Q60 195 60 292Q60 368 110 416T241 465Q281 465 337 446H406L488 453V390ZM408 -117T408 -71T349 -25H180L165 -48Q127 -107 127 -128Q127 -153 157 -169T233 -186Q302 -186 355 -152ZM338
295Q338 342 309 375T236 408Q195 408 166 375T136 295T165 215T237 182Q280 182 309 214T338 295Z" />
<glyph unicode="h" glyph-name="h" horiz-adv-x="536" d="M455 0H379V321Q379 359 372 374Q361 398 327 398Q292 398 252 370T153 277V0H78V729H153V358Q192 402 214 420Q268 465 336 465Q455 465 455 339V0Z" />
<glyph unicode="i" glyph-name="i" horiz-adv-x="247" d="M161 0H86V453H161V0ZM173 631T173 611T159 577T124 562T90 576T75 611T89 645T124 660T158 646Z" />
<glyph unicode="j" glyph-name="j" horiz-adv-x="245" d="M159 -75Q135 -133 108 -177Q85 -216 52 -256L2 -214Q43 -158 60 -122Q84 -74 84 -6V453H159V-75ZM170 632T170 612T156 578T121 563T87 577T72 612T86 646T121 661T155 647Z" />
<glyph unicode="k" glyph-name="k" horiz-adv-x="454" d="M157 0H82V729H157V0ZM445 0H346L159 246L346 453H444L251 245L445 0Z" />
<glyph unicode="l" glyph-name="l" horiz-adv-x="239" d="M157 0H82V729H157V0Z" />
<glyph unicode="m" glyph-name="m" horiz-adv-x="847" d="M765 0H690V321Q690 360 683 374Q672 398 637 398Q579 398 484 299L463 277V0H388V321Q388 360 381 374Q370 398 335 398T260 370T161 277V0H86V453H161V358Q197 399 223 420Q276 465 344 465Q455 465
462 357Q499 399 525 420Q578 465 646 465Q765 465 765 339V0Z" />
<glyph unicode="n" glyph-name="n" horiz-adv-x="545" d="M463 0H388V321Q388 356 381 374Q370 398 335 398T260 370T161 277V0H86V453H161V358Q197 399 223 420Q276 465 344 465Q463 465 463 339V0Z" />
<glyph unicode="o" glyph-name="o" horiz-adv-x="533" d="M490 324T490 226T424 58T267 -13Q175 -13 109 57T43 226T109 394T267 465T424 395ZM408 154T408 226T367 348T267 398Q207 398 166 348T125 226T166 104T267 54Q326 54 367 104Z" />
<glyph unicode="p" glyph-name="p" horiz-adv-x="543" d="M500 239Q500 130 435 59T269 -12Q202 -12 161 19V-239H86V453H161V396Q221 466 310 466Q394 466 447 403T500 239ZM419 238Q419 306 385 350T298 395Q256 395 210 364Q187 347 161 314V157Q161 115 170
98Q192 59 261 59Q333 59 376 107T419 238Z" />
<glyph unicode="q" glyph-name="q" horiz-adv-x="520" d="M445 -239H370V18Q340 3 318 -3Q282 -14 233 -14Q148 -14 96 46T43 202Q43 318 116 391T304 465Q357 465 399 455Q420 450 445 439V-239ZM370 93V382Q343 396 302 396Q222 396 174 344T125 206Q125 136
160 97T258 58Q316 58 370 93Z" />
<glyph unicode="r" glyph-name="r" horiz-adv-x="337" d="M337 434L300 371Q279 389 268 389Q227 389 161 270V0H86V453H161V371Q203 425 228 445T279 465Q306 465 337 434Z" />
<glyph unicode="s" glyph-name="s" horiz-adv-x="447" d="M387 117Q387 56 345 22T229 -13Q200 -13 166 -7Q115 3 59 31L90 94Q120 78 124 76Q177 51 228 51Q263 51 285 68T308 111Q308 129 299 142Q285 162 262 175T179 214Q113 242 87 269T61 337Q61 396 107
430T233 465Q267 465 291 460Q330 453 379 426L342 365Q306 387 277 395T225 403Q187 403 164 388T141 346Q141 329 152 318Q166 304 185 294T264 259Q336 229 361 200T387 117Z" />
<glyph unicode="t" glyph-name="t" horiz-adv-x="309" d="M292 44Q252 11 229 -1T178 -13Q139 -13 115 15T91 88V390H15V434L91 453V585H166V453H286V390H166V132L167 112L169 84Q170 62 195 62Q218 62 261 94L292 44Z" />
<glyph unicode="u" glyph-name="u" horiz-adv-x="541" d="M459 0H383V94Q305 -14 203 -14Q82 -14 82 113V453H157V132Q157 90 169 72T211 53Q247 53 295 87T383 176V453H459V0Z" />
<glyph unicode="v" glyph-name="v" horiz-adv-x="447" d="M432 453L256 -13H187L17 453H99L224 86L226 68L227 85L350 453H432Z" />
<glyph unicode="w" glyph-name="w" horiz-adv-x="668" d="M662 453L505 -13H444L342 270L335 295L329 270L222 -13H159L8 453H90L199 92L200 79L201 92L303 374L273 453H352L472 93L473 79L474 93L587 453H662Z" />
<glyph unicode="x" glyph-name="x" horiz-adv-x="402" d="M394 0H302L198 169L92 0H8L160 229L8 453H101L201 285L302 453H388L238 232L394 0Z" />
<glyph unicode="y" glyph-name="y" horiz-adv-x="405" d="M396 453L218 -25Q188 -106 155 -158Q130 -199 87 -253L27 -207Q82 -146 113 -90Q143 -36 176 50L8 453H92L201 176L216 132L226 176L319 453H396Z" />
<glyph unicode="z" glyph-name="z" horiz-adv-x="460" d="M422 0H32V38L309 386H45V453H422V421L141 67H422V0Z" />
<glyph unicode="{" glyph-name="braceleft" horiz-adv-x="409" d="M386 -243H330Q260 -243 229 -213T198 -111V109Q198 222 122 222H86V277H122Q198 277 198 390V610Q198 680 229 711T330 742H386V679H342Q304 679 286 649Q273 630 273 578V377Q273 343 272 332Q269
303 253 282T213 255L188 249L212 245Q238 240 256 213Q273 186 273 122V-80Q273 -129 286 -150Q294 -163 310 -171T342 -180H386V-243Z" />
<glyph unicode="|" glyph-name="bar" horiz-adv-x="250" d="M162 -239H92V729H162V-239Z" />
<glyph unicode="}" glyph-name="braceright" horiz-adv-x="409" d="M327 222H291Q215 222 215 109V-111Q215 -182 185 -212T83 -243H27V-180H71Q109 -180 127 -150Q140 -130 140 -80V122Q140 155 141 167Q144 196 160 217T200 244L225 249L201 254Q174 260 157
286Q140 313 140 377V578Q140 628 127 649Q119 662 103 670T71 679H27V742H83Q154 742 184 711T215 610V390Q215 279 291 276H327V222Z" />
<glyph unicode="~" glyph-name="asciitilde" horiz-adv-x="544" d="M530 232Q490 203 455 189Q407 172 364 172Q332 172 306 179T233 209Q192 229 162 229Q100 229 37 180L8 222Q48 255 86 270Q131 288 167 288T247 268L297 246Q339 228 368 228Q399 228 432 239Q460
249 497 276L530 232Z" />
</font>
</defs>
</svg>
